<?xml version="1.0" encoding="UTF-8" standalone="no"?> <!-- Created with Inkscape (http://www.inkscape.org/) --> <svg xmlns:dc="http://purl.org/dc/elements/1.1/" xmlns:cc="http://creativecommons.org/ns#" xmlns:rdf="http://www.w3.org/1999/02/22-rdf-syntax-ns#" xmlns:svg="http://www.w3.org/2000/svg" xmlns="http://www.w3.org/2000/svg" xmlns:sodipodi="http://sodipodi.sourceforge.net/DTD/sodipodi-0.dtd" xmlns:inkscape="http://www.inkscape.org/namespaces/inkscape" id="svg2" xml:space="preserve" width="480" height="168" viewBox="0 0 480 168" sodipodi:docname="DSRC_Card2.svg" inkscape:version="0.92.2 5c3e80d, 2017-08-06"> <metadata id="metadata8"></metadata> <defs id="defs6"> <clipPath clipPathUnits="userSpaceOnUse" id="clipPath18"> <path d="M 0,126 H 360 V 0.06 H 0 Z" id="path16" inkscape:connector-curvature="0"></path> </clipPath> </defs> <g id="g10" inkscape:groupmode="layer" inkscape:label="Formal_Viterbi_CardOnWhite" transform="matrix(1.3333333,0,0,-1.3333333,0,168)"><path d="m 148.559,100.526 c 0,0.297 0.055,0.414 0.411,0.414 0.585,0 2.523,-0.179 7.108,-0.177 4.93,0 7.571,0.177 8.099,0.177 0.525,0 0.588,-0.177 0.588,-0.414 v -1.348 c 0,-0.293 -0.063,-0.529 -0.469,-0.529 h -2.82 c -1.64,0 -2.466,-0.531 -2.465,-1.527 0,-0.469 0.059,-1.174 0.234,-1.999 0.356,-2.112 2.526,-9.1 3.586,-12.392 0.699,-2.228 4.113,-12.329 5.46,-15.911 h 0.119 c 1.231,2.758 5.815,14.857 6.283,16.208 0.588,1.584 2.816,8.34 3.698,10.924 0.469,1.465 0.825,2.525 0.825,3.346 -0.004,0.707 -0.415,1.352 -1.879,1.352 h -1.531 c -0.235,0 -0.294,0.176 -0.294,0.529 v 1.349 c 0,0.295 0.059,0.414 0.353,0.414 0.531,0 3.229,-0.177 6.932,-0.177 4.283,0 5.754,0.177 6.28,0.177 0.355,0 0.412,-0.117 0.412,-0.414 v -1.467 c 0,-0.232 -0.057,-0.411 -0.412,-0.411 h -1.581 c -1.941,0 -3.055,-0.938 -4.17,-2.291 -1.525,-1.88 -6.227,-13.917 -7.223,-16.385 -0.707,-1.938 -8.281,-20.611 -8.578,-21.201 -0.23,-0.469 -0.524,-0.764 -0.82,-0.764 -0.468,0 -0.703,0.588 -0.999,1.35 -1.875,5.404 -6.636,18.792 -7.399,20.91 l -0.584,1.994 c -1.41,4.171 -4.172,12.683 -4.935,14.448 -0.592,1.353 -1.179,1.935 -2.412,1.935 h -1.524 c -0.238,0 -0.293,0.179 -0.293,0.414 v 1.466" style="fill:#231f20;fill-opacity:1;fill-rule:nonzero;stroke:none" id="path22" inkscape:connector-curvature="0"></path><path d="m 185.393,76.274 c 0,1.999 -0.352,3.053 -3.286,3.526 -0.417,0.058 -0.531,0.177 -0.531,0.411 v 0.527 c 0,0.177 0.114,0.292 0.412,0.415 1.878,0.703 4.111,1.643 6.342,2.873 0.469,0.235 0.766,0.352 1.115,0.352 0.291,0 0.354,-0.293 0.291,-0.703 -0.115,-0.997 -0.115,-4.697 -0.11,-9.574 v -6.4 c 0,-2.289 0,-4.405 0.054,-5.051 0.119,-1.111 0.295,-1.527 0.94,-1.527 h 2.701 c 0.469,0 0.589,-0.176 0.589,-0.526 v -0.998 c 0,-0.41 -0.12,-0.588 -0.526,-0.588 -0.468,0 -3.175,0.178 -5.638,0.178 -3.411,-0.002 -5.698,-0.182 -6.345,-0.182 -0.294,0 -0.469,0.123 -0.469,0.473 v 1.172 c 0,0.355 0.175,0.471 0.588,0.471 h 2.876 c 0.645,0 0.883,0.236 0.943,1.175 0.057,1.76 0.057,3.582 0.057,5.344 l -0.003,8.632" style="fill:#231f20;fill-opacity:1;fill-rule:nonzero;stroke:none" id="path24" inkscape:connector-curvature="0"></path><path d="m 184.082,90.002 c 0,1.471 1.237,3.054 3.584,3.054 2.055,0.002 3.054,-1.582 3.054,-2.878 0,-1.524 -1.056,-3.229 -3.405,-3.229 -1.294,0 -3.233,1.173 -3.233,3.053" style="fill:#231f20;fill-opacity:1;fill-rule:nonzero;stroke:none" id="path26" inkscape:connector-curvature="0"></path><path d="m 284.442,76.274 c 0,1.999 -0.352,3.053 -3.291,3.526 -0.408,0.058 -0.526,0.177 -0.526,0.411 v 0.527 c 0,0.177 0.118,0.292 0.416,0.415 1.875,0.703 4.105,1.643 6.338,2.873 0.469,0.235 0.766,0.352 1.116,0.352 0.294,0 0.357,-0.293 0.294,-0.703 -0.119,-0.997 -0.119,-4.697 -0.115,-9.574 v -6.4 c 0,-2.289 0,-4.405 0.056,-5.051 0.122,-1.111 0.293,-1.527 0.942,-1.527 h 2.702 c 0.47,0 0.585,-0.176 0.585,-0.526 v -0.998 c 0,-0.41 -0.115,-0.588 -0.526,-0.588 -0.47,0 -3.175,0.178 -5.639,0.178 -3.407,-0.002 -5.696,-0.182 -6.344,-0.182 -0.294,0 -0.471,0.123 -0.471,0.473 v 1.172 c 0,0.355 0.177,0.471 0.593,0.471 h 2.874 c 0.644,0 0.876,0.236 0.941,1.175 0.057,1.76 0.057,3.582 0.057,5.344 l -0.002,8.632" style="fill:#231f20;fill-opacity:1;fill-rule:nonzero;stroke:none" id="path28" inkscape:connector-curvature="0"></path><path d="m 283.134,90.002 c 0,1.471 1.233,3.054 3.582,3.054 2.054,0.002 3.055,-1.582 3.055,-2.878 0,-1.524 -1.056,-3.229 -3.406,-3.229 -1.293,0 -3.231,1.173 -3.231,3.053" style="fill:#231f20;fill-opacity:1;fill-rule:nonzero;stroke:none" id="path30" inkscape:connector-curvature="0"></path><path d="m 202.658,66.527 c 0,-4.404 1.993,-5.17 3.055,-5.17 1.353,0 3.055,0.236 3.873,0.768 0.296,0.173 0.53,0.115 0.706,-0.12 l 0.296,-0.525 c 0.173,-0.234 0.058,-0.471 -0.123,-0.649 -0.583,-0.587 -2.993,-2.351 -6.516,-2.351 -2.879,0 -5.697,2.764 -5.697,4.992 0,2.41 0.181,7.58 0.181,8.401 v 1.291 c 0,1.058 0.052,4.991 0.115,7.458 h -3.585 c -0.528,0 -0.881,0.234 -0.881,0.707 0,0.469 0.353,0.645 1.056,1.055 1.412,0.821 5.932,5.402 6.698,7.4 0.172,0.469 0.469,0.586 0.822,0.586 0.469,0 0.588,-0.412 0.588,-0.881 l -0.298,-5.814 h 8.167 c 0.349,0 0.528,-0.293 0.407,-0.529 l -0.583,-2.051 c -0.063,-0.298 -0.178,-0.469 -0.531,-0.469 l -7.572,-0.004 c -0.121,-2.701 -0.178,-5.519 -0.178,-8.222 v -5.873" style="fill:#231f20;fill-opacity:1;fill-rule:nonzero;stroke:none" id="path32" inkscape:connector-curvature="0"></path><path d="m 217.043,74.808 c -0.119,-0.525 -0.178,-1.469 -0.178,-2.818 0,-5.756 3.645,-10.098 8.343,-10.098 3.581,0 6.105,2.055 7.105,3.992 0.117,0.235 0.351,0.352 0.529,0.293 l 0.76,-0.412 c 0.183,-0.056 0.295,-0.234 0,-0.879 -1.055,-2.351 -4.11,-6.402 -9.335,-6.402 -3.349,0 -7.046,0.996 -9.223,4.172 -2.054,2.992 -2.581,5.164 -2.581,9.275 0,2.291 0.586,6.224 3.695,9.34 2.526,2.58 5.464,3.112 8.401,3.112 6.754,0.001 8.632,-6.343 8.632,-8.634 0,-0.822 -0.703,-0.939 -1.644,-0.939 z m 9.337,1.763 c 1.115,0 1.582,0.293 1.582,0.821 0,1.354 -0.701,5.227 -4.52,5.227 -2.583,0 -5.046,-1.705 -6.166,-6.05 l 9.104,0.002" style="fill:#231f20;fill-opacity:1;fill-rule:nonzero;stroke:none" id="path34" inkscape:connector-curvature="0"></path><path d="m 239.824,74.81 c 0,2.996 -0.47,3.584 -2.112,4.463 l -1.118,0.586 c -0.35,0.119 -0.47,0.177 -0.47,0.415 v 0.352 c 0,0.234 0.12,0.348 0.47,0.527 l 5.814,2.995 c 0.352,0.176 0.586,0.236 0.821,0.236 0.354,0 0.412,-0.353 0.412,-0.705 l 0.291,-4.054 h 0.238 c 1.76,2.702 4.522,5.11 7.049,5.11 1.996,0 2.991,-1.23 2.991,-2.584 0,-1.701 -1.409,-2.877 -2.467,-2.877 -0.64,0 -1.227,0.235 -1.7,0.469 -0.469,0.293 -1.176,0.469 -1.939,0.469 -0.94,0 -2.465,-0.587 -3.465,-2.467 -0.35,-0.641 -0.587,-1.703 -0.584,-1.879 V 63.535 c 0,-1.819 0.412,-2.407 1.643,-2.407 h 2.761 c 0.354,0 0.412,-0.177 0.412,-0.529 v -1.058 c 0,-0.352 -0.058,-0.53 -0.293,-0.53 -0.354,0 -3.055,0.178 -6.228,0.178 -3.638,0 -6.106,-0.178 -6.459,-0.178 -0.235,0 -0.35,0.119 -0.35,0.59 v 0.998 c 0,0.412 0.115,0.529 0.647,0.529 h 2.285 c 0.882,0 1.295,0.352 1.295,1.114 0.056,1.939 0.056,3.994 0.056,7.049 v 5.519" style="fill:#231f20;fill-opacity:1;fill-rule:nonzero;stroke:none" id="path36" inkscape:connector-curvature="0"></path><path d="m 256.617,90.845 c 0,3.933 -0.647,4.758 -2.762,5.462 l -0.585,0.175 c -0.646,0.177 -0.761,0.293 -0.761,0.47 v 0.469 c 0,0.178 0.115,0.293 0.469,0.469 1.701,0.765 4.756,2.291 6.225,3.23 0.41,0.297 0.879,0.531 1.229,0.531 0.41,0 0.529,-0.296 0.471,-1.002 -0.061,-0.468 -0.057,-7.162 -0.057,-12.388 v -6.815 c 1.879,1.823 5.225,2.938 8.103,2.938 5.168,0.002 10.75,-4.168 10.75,-12.564 0,-6.873 -5.519,-13.332 -12.219,-13.332 -3.284,0 -5.579,0.703 -6.925,1.525 l -2.352,-1.293 c -0.23,-0.177 -0.41,-0.234 -0.765,-0.177 l -0.704,0.177 c -0.23,0.057 -0.296,0.176 -0.23,0.471 0.116,0.822 0.116,5.695 0.116,9.98 z m 4.231,-19.027 c 0,-4.877 0.178,-6.637 0.881,-8.516 0.585,-1.41 3.055,-2.935 5.577,-2.935 3.524,0 7.871,2.404 7.871,10.099 0,5.697 -2.997,11.098 -8.748,11.098 -2.18,0 -4.293,-0.761 -5.583,-2.115 l 0.002,-7.631" style="fill:#231f20;fill-opacity:1;fill-rule:nonzero;stroke:none" id="path38" inkscape:connector-curvature="0"></path><path d="m 40.369,95.933 c 0,2.021 -0.476,2.97 -2.022,2.97 h -2.736 c -0.357,0 -0.475,0.122 -0.475,0.538 v 1.371 c 0,0.352 0.118,0.47 0.591,0.47 0.598,0 3.449,-0.177 9.157,-0.177 4.991,0 7.848,0.177 8.561,0.177 0.356,0 0.475,-0.118 0.475,-0.412 v -1.488 c 0,-0.357 -0.119,-0.479 -0.475,-0.479 h -2.496 c -1.786,0 -2.853,-1.064 -2.916,-2.314 -0.056,-0.713 -0.176,-4.281 -0.176,-7.73 v -7.372 c 0,-2.97 0.056,-7.193 0.176,-9.093 0.182,-2.734 0.656,-5.469 2.08,-7.369 2.022,-2.732 5.231,-3.686 8.085,-3.686 2.737,0 6.066,1.067 7.966,2.852 2.26,2.258 3.45,5.707 3.45,10.049 v 10.699 c 0,4.751 -0.475,9.984 -0.655,11.353 -0.18,1.547 -1.131,2.611 -2.439,2.611 h -2.137 c -0.358,0 -0.477,0.182 -0.477,0.421 v 1.488 c 0,0.352 0.119,0.47 0.477,0.47 0.594,0 3.327,-0.177 7.253,-0.177 3.683,0 5.585,0.177 6.06,0.177 0.535,0 0.597,-0.177 0.597,-0.47 v -1.371 c 0,-0.356 -0.062,-0.538 -0.358,-0.538 h -2.139 c -2.138,0 -2.381,-1.66 -2.498,-2.314 -0.116,-0.713 -0.116,-9.037 -0.116,-9.81 0,-0.831 -0.12,-11.174 -0.359,-13.551 -0.356,-4.877 -1.784,-8.562 -4.995,-11.414 -2.497,-2.258 -6.296,-3.687 -10.818,-3.687 -2.854,0 -6.299,0.476 -8.559,1.429 -3.446,1.426 -5.823,4.16 -7.016,7.967 -0.833,2.611 -1.066,6.535 -1.066,14.324 v 14.086" style="fill:#8b2824;fill-opacity:1;fill-rule:nonzero;stroke:none" id="path40" inkscape:connector-curvature="0"></path><path d="m 79.96,72.277 c 0.235,0 0.353,-0.121 0.353,-0.477 0.121,-1.902 0.596,-4.162 2.261,-6.777 1.781,-2.854 4.874,-4.277 7.848,-4.277 3.21,0 7.728,2.019 7.728,6.955 0,5.468 -2.498,7.25 -8.798,9.626 -1.904,0.715 -5.827,2.379 -8.682,4.993 -2.02,1.904 -2.969,4.875 -2.969,8.503 0,3.328 1.307,6.063 4.159,8.321 2.38,2.021 4.993,2.855 8.442,2.855 3.923,0 6.3,-0.953 7.488,-1.428 0.598,-0.238 0.95,-0.121 1.249,0.178 l 0.774,0.773 c 0.239,0.239 0.475,0.356 0.83,0.356 0.359,0 0.477,-0.356 0.477,-0.953 0,-0.949 0.951,-9.272 0.951,-9.863 0,-0.239 -0.119,-0.358 -0.356,-0.42 l -0.953,-0.294 c -0.236,-0.06 -0.474,0 -0.591,0.356 -0.595,1.664 -1.546,4.039 -3.689,6.301 -1.544,1.663 -3.447,2.496 -6.18,2.496 -4.756,0 -6.658,-3.805 -6.658,-6.006 0,-2.021 0.238,-3.803 1.665,-5.347 1.544,-1.545 4.876,-2.973 7.251,-3.688 3.448,-1.066 6.303,-2.258 8.56,-4.637 1.903,-2.019 2.974,-4.515 2.974,-8.497 0,-7.252 -4.756,-13.198 -12.604,-13.198 -4.875,0 -7.725,1.069 -10.104,2.856 -0.716,0.475 -1.073,0.711 -1.426,0.711 -0.358,0 -0.596,-0.475 -0.952,-1.07 -0.358,-0.594 -0.596,-0.715 -1.07,-0.715 -0.475,0 -0.714,0.361 -0.714,0.953 0.119,0.713 0.952,10.344 1.067,11.056 0.059,0.358 0.121,0.477 0.359,0.477 l 1.31,-0.119" style="fill:#8b2824;fill-opacity:1;fill-rule:nonzero;stroke:none" id="path42" inkscape:connector-curvature="0"></path><path d="m 144.753,68.709 c 0.178,-0.176 0.236,-0.356 0.119,-0.592 -3.567,-5.115 -9.274,-9.989 -17.715,-9.989 -7.606,0 -11.889,2.26 -15.571,5.588 -4.403,3.926 -6.424,10.819 -6.424,16.051 0,5.824 1.902,11.413 6.065,15.929 3.21,3.448 8.324,6.301 15.452,6.301 5.47,0 9.87,-1.664 12.009,-2.853 0.835,-0.476 1.073,-0.476 1.189,0 l 0.476,1.545 c 0.12,0.357 0.237,0.357 0.952,0.357 0.714,0 0.831,-0.117 0.831,-0.951 0,-1.07 1.19,-10.58 1.427,-12.364 0.056,-0.357 0,-0.535 -0.237,-0.594 l -1.128,-0.357 c -0.3,-0.119 -0.477,0.118 -0.654,0.594 -0.715,2.141 -2.144,5.112 -4.639,7.727 -2.614,2.498 -5.708,4.399 -10.341,4.399 -9.511,0 -13.437,-8.56 -13.437,-17.12 0,-3.686 1.071,-10.699 5.473,-15.455 3.921,-4.16 7.369,-4.636 10.223,-4.636 6.538,0 11.709,3.271 14.207,6.894 0.296,0.418 0.533,0.596 0.712,0.418 l 1.011,-0.892" style="fill:#8b2824;fill-opacity:1;fill-rule:nonzero;stroke:none" id="path44" inkscape:connector-curvature="0"></path><text xml:space="preserve" style="font-style:italic;font-variant:normal;font-weight:normal;font-stretch:normal;font-size:18px;line-height:125%;font-family:'Adobe Caslon Pro';-inkscape-font-specification:'Adobe Caslon Pro, Italic';font-variant-ligatures:normal;font-variant-caps:normal;font-variant-numeric:normal;text-align:start;letter-spacing:0px;word-spacing:0px;writing-mode:lr-tb;text-anchor:start;fill:#231f20;fill-opacity:1;stroke:none;stroke-width:0.75px;stroke-linecap:butt;stroke-linejoin:miter;stroke-opacity:1;" x="35.045795" y="-36.138245" id="text894" transform="scale(1,-1)"><tspan sodipodi:role="line" id="tspan892" x="35.045795" y="-36.138245" style="font-size:24px;fill:#231f20;fill-opacity:1;stroke-width:0.75px;">Data Science Research Center</tspan></text> </g> </svg> 